HIERARCHY
ROOT Hips
{
	OFFSET 0.00000 0.00000 0.00000
	CHANNELS 6 Xposition Yposition Zposition Zrotation Yrotation Xrotation 
	JOINT LHipJoint
	{
		OFFSET 0 0 0
		CHANNELS 3 Zrotation Yrotation Xrotation
		JOINT LeftHip
		{
			OFFSET 1.53794 -1.55850 0.93568
			CHANNELS 3 Zrotation Yrotation Xrotation
			JOINT LeftKnee
			{
				OFFSET 2.28545 -6.27922 0.00000
				CHANNELS 3 Zrotation Yrotation Xrotation
				JOINT LeftAnkle
				{
					OFFSET 2.37329 -6.52057 0.00000
					CHANNELS 3 Zrotation Yrotation Xrotation
					JOINT LeftToe
					{
						OFFSET 0.14846 -0.40788 2.09160
						CHANNELS 3 Zrotation Yrotation Xrotation
						End Site
						{
							OFFSET 0.00000 -0.00000 1.07536
						}
					}
				}
			}
		}
	}
	JOINT RHipJoint
	{
		OFFSET 0 0 0
		CHANNELS 3 Zrotation Yrotation Xrotation
		JOINT RightHip
		{
			OFFSET -1.78290 -1.55850 0.93568
			CHANNELS 3 Zrotation Yrotation Xrotation
			JOINT RightKnee
			{
				OFFSET -2.24144 -6.15831 0.00000
				CHANNELS 3 Zrotation Yrotation Xrotation
				JOINT RightAnkle
				{
					OFFSET -2.35091 -6.45907 0.00000
					CHANNELS 3 Zrotation Yrotation Xrotation
					JOINT RightToe
					{
						OFFSET -0.14428 -0.39641 2.07944
						CHANNELS 3 Zrotation Yrotation Xrotation
						End Site
						{
							OFFSET -0.00000 -0.00000 1.06864
						}
					}
				}
			}
		}
	}
	JOINT lowerback
	{
		OFFSET 0 0 0
		CHANNELS 3 Zrotation Yrotation Xrotation
		JOINT Chest
		{
			OFFSET -0.08841 2.11430 -0.15818
			CHANNELS 3 Zrotation Yrotation Xrotation
			JOINT Chest2
			{
				OFFSET -0.00033 2.12605 -0.08097
				CHANNELS 3 Zrotation Yrotation Xrotation
				JOINT lowerneck
				{
					OFFSET 0 0 0
					CHANNELS 3 Zrotation Yrotation Xrotation
					JOINT Neck
					{
						OFFSET 0.04431 1.59447 0.43193
						CHANNELS 3 Zrotation Yrotation Xrotation
						JOINT Head
						{
							OFFSET 0.00455 1.62017 -0.58852
							CHANNELS 3 Zrotation Yrotation Xrotation
							End Site
							{
								OFFSET -0.00920 1.72955 -0.25850
							}
						}
					}
				}
				JOINT LeftCollar
				{
					OFFSET 0 0 0
					CHANNELS 3 Zrotation Yrotation Xrotation
					JOINT LeftShoulder
					{
						OFFSET 2.86490 1.49927 -0.33774
CHANNELS 3 Zrotation Xrotation Yrotation
						JOINT LeftElbow
						{
OFFSET 0 -4.874080 0.000000
CHANNELS 3 Zrotation Xrotation Yrotation
							JOINT LeftWrist
							{
OFFSET 0 -2.767290 0.000000
CHANNELS 3 Zrotation Xrotation Yrotation
								JOINT lhand
								{
									OFFSET 0 0 0
CHANNELS 3 Zrotation Xrotation Yrotation
									JOINT LFingers
									{
OFFSET 0 -0.989220 0.000000
CHANNELS 3 Zrotation Xrotation Yrotation
										End Site
										{
OFFSET 0 -0.797530 0.000000
										}
									}
								}
								JOINT LThumb
								{
OFFSET 0 0.000000 0.000000
CHANNELS 3 Zrotation Xrotation Yrotation
									End Site
									{
OFFSET 0 -0.809720 0.809720
									}
								}
							}
						}
					}
				}
				JOINT RightCollar
				{
					OFFSET 0 0 0
					CHANNELS 3 Zrotation Yrotation Xrotation
					JOINT RightShoulder
					{
						OFFSET -2.94414 1.45463 -0.25291
CHANNELS 3 Zrotation Xrotation Yrotation
						JOINT RightElbow
						{
OFFSET 0 -4.714040 0.000000
CHANNELS 3 Zrotation Xrotation Yrotation
							JOINT RightWrist
							{
OFFSET 0 -2.834680 0.000000
CHANNELS 3 Zrotation Xrotation Yrotation
								JOINT rhand
								{
									OFFSET 0 0 0
CHANNELS 3 Zrotation Xrotation Yrotation
									JOINT RFingers
									{
OFFSET 0 -0.868200 0.000000
CHANNELS 3 Zrotation Xrotation Yrotation
										End Site
										{
OFFSET 0 -0.699960 0.000000
										}
									}
								}
								JOINT RThumb
								{
OFFSET 0 0.000000 0.000000
CHANNELS 3 Zrotation Xrotation Yrotation
									End Site
									{
OFFSET 0 -0.710650 0.710650
									}
								}
							}
						}
					}
				}
			}
		}
	}
}
MOTION
Frames: 4
Frame Time: 0.008333333333333333
13.955053 15.306655 -2.171115 -174.222860 -12.550952 -173.453604 0.000000 0.000000 0.000000 -14.338530 -8.756305 -46.835965 19.681739 19.991310 89.069267 -0.980294 18.984685 1.547237 0.062258 -1.610004 -4.428996 0.000000 0.000000 0.000000 22.565394 8.541859 -1.676116 -3.898989 -12.018311 35.805728 0.819212 -15.857173 -6.643107 -4.024324 12.192667 -36.416960 2.088306 3.802710 2.596265 0.314276 5.062831 1.597195 -0.948680 2.524373 0.340304 4.314452 3.904881 -30.044102 -2.693601 1.857705 42.927224 -2.259745 0.136593 24.467424 0.000000 0.000000 0.000000 18.015849 27.219183 -52.896954 93.707066 -59.947442 63.209822 16.401849 21.198764 -8.815745 0.000000 0.000000 0.000000 -7.125000 0.000000 0.000000 -9.096219 39.009536 -1.355651 0.000000 0.000000 0.000000 -11.018206 5.329785 42.596853 -81.668631 -59.735117 -52.791291 -12.801614 10.677566 2.662440 0.000000 0.000000 0.000000 7.125000 0.000000 0.000000 11.127488 32.569392 3.444170
13.927158 15.342364 -2.260544 -174.214579 -12.720857 -173.363813 0.000000 0.000000 0.000000 -14.353590 -8.797216 -47.151994 19.408716 19.988929 88.270900 -0.979181 18.942454 1.477112 0.063474 -1.625711 -4.472287 0.000000 0.000000 0.000000 22.598981 8.301777 -1.248249 -3.775066 -11.852132 35.214684 0.810337 -15.726419 -5.783620 -4.018373 12.184800 -36.388781 2.101219 3.881530 2.478294 0.273727 5.170192 1.528286 -0.993239 2.579619 0.343513 4.256256 3.846944 -30.011006 -2.580004 1.708916 43.045273 -2.235835 0.085978 24.550772 0.000000 0.000000 0.000000 18.212846 27.368749 -53.041862 93.913198 -59.941827 63.388266 16.378146 21.120591 -8.807335 0.000000 0.000000 0.000000 -7.125000 0.000000 0.000000 -9.115057 38.999108 -1.360852 0.000000 0.000000 0.000000 -11.023718 5.298656 42.711460 -81.934693 -59.752351 -53.021074 -12.701343 10.740497 2.589520 0.000000 0.000000 0.000000 7.125000 0.000000 0.000000 11.197665 32.492875 3.487409
13.898558 15.378750 -2.350560 -174.208649 -12.900590 -173.270349 0.000000 0.000000 0.000000 -14.377935 -8.838876 -47.441608 19.122354 19.977528 87.432574 -0.975042 18.881508 1.425395 0.064250 -1.635688 -4.499785 0.000000 0.000000 0.000000 22.624019 8.051985 -0.830827 -3.652202 -11.678711 34.609683 0.792323 -15.596297 -4.872626 -4.007617 12.170499 -36.337742 2.109004 3.951520 2.354961 0.232180 5.265375 1.456395 -1.034963 2.628592 0.346266 4.202056 3.793149 -29.971637 -2.466847 1.562829 43.161103 -2.211749 0.036672 24.632916 0.000000 0.000000 0.000000 18.399942 27.528892 -53.172946 94.127645 -59.935184 63.573865 16.350256 21.034588 -8.814175 0.000000 0.000000 0.000000 -7.125000 0.000000 0.000000 -9.140065 39.004002 -1.363526 0.000000 0.000000 0.000000 -11.031683 5.278589 42.841919 -82.189046 -59.767748 -53.240823 -12.617570 10.759253 2.519127 0.000000 0.000000 0.000000 7.125000 0.000000 0.000000 11.254899 32.419546 3.526095
13.869421 15.415649 -2.441024 -174.204509 -13.087807 -173.174088 0.000000 0.000000 0.000000 -14.409349 -8.881106 -47.711112 18.825836 19.959259 86.563824 -0.968599 18.806311 1.387693 0.064690 -1.641303 -4.515259 0.000000 0.000000 0.000000 22.642546 7.794798 -0.421358 -3.530143 -11.499775 33.994056 0.767352 -15.466656 -3.922417 -3.993204 12.151299 -36.269299 2.112885 4.014788 2.227545 0.189872 5.351284 1.382233 -1.074528 2.672789 0.348673 4.150898 3.742509 -29.927492 -2.354025 1.418801 43.275244 -2.187529 -0.011640 24.714142 0.000000 0.000000 0.000000 18.579499 27.697089 -53.293505 94.348423 -59.927757 63.764911 16.319178 20.942623 -8.832625 0.000000 0.000000 0.000000 -7.125000 0.000000 0.000000 -9.169772 39.020563 -1.364276 0.000000 0.000000 0.000000 -11.041516 5.266945 42.984446 -82.434484 -59.781747 -53.452933 -12.546358 10.744374 2.450658 0.000000 0.000000 0.000000 7.125000 0.000000 0.000000 11.302279 32.348645 3.561313
